<svg width="800" height="600" xmlns="http://www.w3.org/2000/svg">
 <defs>
  <linearGradient spreadMethod="pad" y2="0" x2="1" y1="0" x1="0" id="svg_13">
   <stop offset="0" stop-opacity="0.99609" stop-color="#3838ff"/>
   <stop offset="1" stop-opacity="0.99609" stop-color="#ffffff"/>
  </linearGradient>
 </defs>
 <g>
  <title>Layer 1</title>
  <path stroke="#000000" id="svg_2" d="m378.82617,235.62665c0,0 32.64226,6.68957 40.39496,29.81609c0,0 6.9364,8.98311 4.89633,13.76133c-2.04007,4.77812 -5.30448,6.30718 -6.12044,6.88061c0,0 4.08037,-4.39603 -9.79266,-11.46779c0,0 -7.14059,-1.14677 -8.56866,-2.29354c-1.42807,-1.14677 -22.44157,-4.96937 -26.92997,4.58707c-4.48829,9.55654 -5.50833,25.61131 -4.89633,26.37578c0.612,0.76448 21.42153,15.29039 23.25764,19.49517c1.83611,4.20478 11.62888,12.8055 15.91321,12.61446c4.28422,-0.19104 14.48502,-0.19104 17.13721,-3.44031c2.65207,-3.24926 10.40477,-3.63145 12.24088,0c1.83611,3.63135 1.22411,3.44031 1.22411,3.44031c0,0 6.52848,-1.33781 8.56866,3.44031c2.04007,4.77822 -3.06033,6.88061 -3.67233,6.88061c-0.612,0 3.87629,-7.2629 -2.44822,-5.73384c0,0 -3.67222,0.14339 -3.67222,-1.14677c0,-1.29015 2.14216,6.73733 0,6.88061c0,0 -7.19158,-7.45394 -8.56866,-3.44031c0,0 -4.59027,0.8601 -6.12044,1.14677c-1.53005,0.28667 -1.22411,1.14677 -1.22411,1.14677c0,0 -3.97827,1.43343 -1.224,5.73384c0,0 0,1.57682 -1.22411,2.29364c-1.22411,0.71672 0.76508,4.15702 6.12044,1.14677c0,0 1.37708,-1.14677 1.22411,0c-0.15308,1.14677 -5.50844,7.31066 -12.24088,-1.14677c0,0 -2.44822,-6.45067 1.22411,-8.02749c3.67222,-1.57682 -1.22411,-4.73046 -6.12044,-2.29354c0,0 -0.30606,4.58707 1.224,5.73384c1.53017,1.14677 -2.60119,0.14339 -3.67222,-1.14677c-1.07103,-1.29005 -2.44822,2.72359 -2.44822,3.44031c0,0.71672 -1.37708,3.15364 -2.44811,2.29364c-1.07114,-0.8601 -11.16985,-1.86359 -11.01688,-1.14687c0.15308,0.71682 -4.74325,3.72708 -6.12044,2.29364c-1.37708,-1.43354 -9.02757,-8.7442 -9.79266,-8.02749c-0.76508,0.71672 5.20238,8.7442 8.56866,10.32102c3.36616,1.57672 17.44326,2.5802 22.03353,-1.14677c0,0 7.03849,-1.29015 7.34455,0c0,0 7.95655,3.01025 7.34455,4.58707c-0.61211,1.57682 -0.61211,0.71672 -1.22411,0c-0.612,-0.71682 -5.66141,-3.29703 -6.12044,-2.29354c-0.45903,1.00338 0,1.14677 0,1.14677c0,0 6.42649,1.7201 6.12044,2.29354c0,0 7.49752,2.86687 6.12044,9.17415c0,0 -2.29514,1.57682 -2.44822,0c-0.15297,-1.57682 0.91805,-5.87723 -3.67222,-5.73384c0,0 -0.76508,2.29354 -3.67222,1.14677c-2.90725,-1.14677 1.68303,-3.58369 -13.46499,-2.29354c0,0 0.612,2.72359 2.44811,3.44031c1.83611,0.71672 4.89644,0.71672 4.89644,3.44031c0,0 1.98908,2.29354 0,4.58707c0,0 -1.22411,0.71672 -1.22411,0c0,-0.71672 1.22411,-4.15702 -4.89633,-5.73384c-6.12055,-1.57682 -4.89644,-1.14677 -4.89644,-1.14677c0,0 1.07114,6.88061 -1.22411,6.88061c-2.29514,0 1.53017,4.30041 6.12055,2.29354c0,0 0.45892,-1.7201 1.224,-1.14677c0.76508,0.57344 -3.82519,8.88748 -12.24088,-1.14677c0,0 -2.75416,-5.30379 0,-6.88061c0,0 1.83611,-5.30379 -7.34455,-3.44031c0,0 -3.82519,0.57333 -3.67222,0c0.15297,-0.57344 -0.612,2.72359 0,3.44031c0.612,0.71672 -7.19158,-1.57682 -7.34455,-2.29354l-2.44811,0c0,0 1.42807,6.68957 2.44811,6.88061c1.02004,0.19104 -4.69225,-3.24926 -6.12044,-5.73384c0,0 0,4.77812 1.22411,5.73384c1.22411,0.95573 -5.50844,-5.16051 -4.89633,-5.73384c0,0 0.20396,6.11613 2.44811,9.17415c2.24415,3.05802 -4.89633,-2.86687 -6.12044,-4.58707c0,0 -1.224,0.76448 0,2.29354c1.22411,1.52906 -4.08026,-1.52906 -4.89633,-5.73384c0,0 -3.46826,-2.67583 -4.89633,-3.44031c0,0 0.20396,6.49832 1.22411,6.88061c0,0 -2.85626,-2.1025 -3.67233,-4.58707c0,0 -1.63204,2.29354 -1.22411,3.44031c0,0 -4.69225,-4.96937 -6.12044,-9.17415c-1.42807,-4.20478 -1.224,1.14677 -1.224,1.14677c0,0 -2.85626,-0.3824 -4.89644,-8.02738c0,0 -11.83284,11.65873 -15.9131,12.61446c-4.08026,0.95562 4.89633,-4.58707 4.89633,-4.58707c0,0 -6.73244,1.91125 -7.34455,3.44031c0,0 0.61211,-2.1025 3.67233,-4.58707c3.06022,-2.48468 -3.67233,-1.14677 -3.67233,-1.14677c0,0 -1.42807,-0.3824 -1.224,-12.61456c0,0 -9.18077,9.17425 -14.6891,9.17425c-5.50844,0 5.1004,-3.8227 6.12044,-6.88072c1.02004,-3.05802 -2.24415,-2.10239 -3.67233,-1.14677c-1.42807,0.95573 -12.0368,6.68957 -12.24088,8.02749c-0.20396,1.33781 -1.224,-2.29354 -1.224,-2.29354c0,0 -2.44822,1.14677 -4.89644,1.14677c-2.44811,0 7.14047,-4.20478 8.56866,-6.88072c1.42818,-2.67583 -13.26091,4.77822 -18.36132,8.02749c0,0 -4.28433,1.33781 -4.89633,0c-0.61211,-1.33791 7.34455,-6.49832 7.34455,-6.88072c0,-0.38229 2.85615,-3.63135 -2.44822,-1.14677c-5.30437,2.48468 -12.24088,0.57344 -17.13721,2.29354c-4.89644,1.72021 -10.20069,7.07176 -17.13732,6.88072c-6.93651,-0.19115 -6.93484,8.02738 -19.58531,8.02738c-7.34455,0 -4.28433,2.67583 -7.34455,2.29354c-3.06022,-0.38229 3.67222,-3.44031 3.67222,-3.44031c0,0 -7.34455,2.29354 -8.56855,2.29354c-1.22411,0 -6.73255,0.19104 6.12033,-4.58707c0,0 -9.38462,0 -6.12033,-1.14677c3.26418,-1.14677 11.4248,-3.44031 11.01677,-4.58707c-0.40815,-1.14677 -8.77262,-0.95573 -6.12044,-2.29354c2.65207,-1.33791 17.13721,-6.30728 13.46499,-6.88072c-3.67233,-0.57333 -8.97669,-0.76448 -6.12044,-2.29354c2.85626,-1.52906 37.94663,-5.16041 42.84307,-9.17415c4.89633,-4.01374 17.54524,-15.67247 20.80942,-16.05476c3.26429,-0.3824 0,-3.24926 -2.44811,-2.29364c-2.44822,0.95573 -4.69237,-0.57333 -3.67233,-6.88061c1.02015,-6.30718 -10.49918,13.83099 -17.13721,6.88061c-3.46826,-3.63135 -0.81607,-6.30718 -4.89633,-5.73384c-4.08026,0.57344 -3.87629,-4.20478 -4.89633,-2.29354c-1.02004,1.91125 -9.58869,13.76133 -13.46499,12.61456c-3.87629,-1.14677 -1.02004,-1.91125 -3.67233,-2.29354c-2.65218,-0.3824 -4.48829,-1.14677 -4.89633,-3.44041c-0.40804,-2.29354 -2.85615,1.52916 -3.67222,-2.29354c-0.81607,-3.8226 -1.42807,-8.60071 -4.89633,-4.58707c-3.46837,4.01374 -4.69248,1.33791 -4.89644,0c-0.20396,-1.33781 -7.54851,0.76448 -7.34444,-3.44031c0.20385,-4.20478 -7.14059,1.33791 -6.12055,-3.44031c1.02015,-4.77812 -6.2045,-0.64758 -4.89633,-4.58707c2.85626,-8.60082 -9.79266,-0.76448 -8.56855,-4.58707c1.224,-3.8226 -5.91648,-0.76448 -4.89644,-4.58707c1.02015,-3.8226 -6.79267,-2.4949 -6.12044,-5.73384c1.42807,-6.88072 -7.34444,-2.1025 -6.12044,-8.02749c1.22411,-5.92488 -5.57056,-0.03973 -4.89633,-4.58707c1.02015,-6.88061 -8.74367,-4.38196 -6.12044,-9.17415c4.08037,-7.45405 -4.1956,-4.24973 -2.44822,-8.02738c2.65218,-5.73384 -17.04035,0.63611 -12.24088,-9.17425c2.24426,-4.58707 -13.32838,-7.64113 -6.12044,-11.46769c12.24088,-6.49832 -18.76924,-3.24926 -3.67222,-13.76122c14.07699,-6.11613 14.9396,-6.69218 -2.44822,-5.73384c-6.93651,0.38229 -17.34128,-8.60082 -7.34444,-9.17425c9.99673,-0.57333 30.39812,-5.16041 7.34444,-6.88061c-23.05357,-1.7201 -23.86964,-9.55644 -14.68899,-9.17415c9.18066,0.38229 45.08721,0.38229 35.49852,-2.29354c-9.58869,-2.67583 -53.47117,-9.21524 -36.72263,-16.05476c7.95655,-3.24926 64.02167,14.02693 47.7394,2.29354c-2.65207,-1.91125 -28.56201,-8.79196 -37.94674,-18.3484c-9.38462,-9.55644 -7.54851,-10.89435 -2.44811,-9.17415c5.1004,1.7201 64.26427,26.94912 55.08395,18.3483c-1.63215,-1.52906 -35.49852,-16.6282 -40.39496,-29.81599c-4.89633,-13.18789 -0.20396,-9.74759 3.67233,-5.73395c3.87618,4.01374 59.54696,42.34222 50.18762,29.81609c-2.85626,-3.8226 -27.74594,-19.11278 -33.05041,-34.40317c-5.30448,-15.29028 -1.22411,-11.0854 2.44822,-6.88061c3.67222,4.20478 60.39944,61.49212 51.41162,41.28378c-2.04007,-4.58707 -19.99346,-18.92174 -22.03353,-32.10963c-2.04007,-13.18789 3.26418,-8.21842 6.12044,-3.44031c2.85626,4.77822 43.04714,64.21926 44.06718,53.89834c0,0 0.20407,0.19104 1.22411,0c1.02004,-0.19115 -0.81607,-5.5428 1.22411,-4.58707c0,0 0.81607,-4.20478 2.44811,-3.44041c1.63215,0.76448 3.26429,0.19115 3.67233,-4.58707c0.40793,-4.77812 12.44484,0.76448 15.9131,25.22902c0,0 2.44822,2.48155 2.44822,8.02738c0,2.86697 14.68899,16.81934 23.25764,16.05487c8.56866,-0.76448 20.80954,16.05476 24.48175,17.20153c3.67222,1.14677 11.83284,8.02738 24.48175,1.14677c12.64891,-6.88061 25.09386,-9.17415 14.6891,-10.32092c-10.40477,-1.14677 -8.36458,-4.96937 -3.67222,-5.73384c4.69225,-0.76448 25.09375,-1.14677 18.36132,-4.58707c-6.73255,-3.44041 -12.54827,-21.82114 -3.67233,-17.20163c3.67233,1.91125 16.71392,18.89483 14.6891,6.88061c-0.61211,-3.63135 -8.56866,-8.02738 -6.12044,-20.64184c2.44811,-12.61456 5.84244,-2.57885 6.12044,-1.14677c0.40804,2.10239 10.30535,28.20507 12.24088,14.90799c0.612,-4.20478 -4.48829,-9.74759 -2.44822,-25.22902c2.04007,-15.48133 4.89633,0 4.89633,0c0,0 5.82095,15.85402 4.89644,24.08225c-0.40815,3.63145 5.30437,2.29354 4.89633,-4.58707c-0.40815,-6.88061 -3.46826,-21.97975 -1.22411,-21.78871c2.24426,0.19115 8.96823,10.23593 7.34455,18.3484c-0.61211,3.05802 8.77262,6.11613 -1.22411,12.61446c-9.99662,6.49832 -20.80954,19.49517 -20.80954,19.49517c0,0 2.41861,8.39956 -9.79266,12.61446c-7.75258,2.67583 -1.22411,8.02738 -1.22411,8.02738z" fill="url(#svg_13)"/>
  <path stroke="#000" style="vector-effect: non-scaling-stroke;" id="svg_5" d="m113,434" opacity="NaN" fill="#fff"/>
  <text transform="matrix(1.57162 0 0 1.22988 -31.5883 -12.8315)" stroke="#000000" font-weight="bold" xml:space="preserve" text-anchor="start" font-family="'Domine'" font-size="40" stroke-width="0" id="svg_14" y="303.5414" x="172.19599" fill="#000000">ORIGINAL</text>
  <text transform="matrix(1.51069 0 0 1.30727 66.9557 -182.768)" stroke="#000000" font-weight="bold" xml:space="preserve" text-anchor="start" font-family="'Domine'" font-size="40" id="svg_17" y="467.96113" x="282.73119" stroke-width="0" fill="#000000">W.L.S</text>
 </g>
</svg>