<svg width="1920" height="1080" xmlns="http://www.w3.org/2000/svg">
 <defs>
  <linearGradient spreadMethod="pad" y2="0" x2="1" y1="0" x1="0" id="svg_13">
   <stop offset="0" stop-opacity="0.99609" stop-color="#3838ff"/>
   <stop offset="1" stop-opacity="0.99609" stop-color="#ffffff"/>
  </linearGradient>
 </defs>
 <g>
  <title>Layer 1</title>
  <path stroke="#000000" id="svg_2" d="m838.00011,445.92642c0,0 75.76623,15.45715 93.76107,68.89409c0,0 16.10014,20.75668 11.36491,31.7974c-4.73523,11.04048 -12.31226,14.57358 -14.2062,15.89858c0,0 9.47097,-10.15763 -22.72982,-26.49788c0,0 -16.57407,-2.64976 -19.88878,-5.29953c-3.31471,-2.64976 -52.08931,-11.48239 -62.50738,10.59905c-10.41781,22.08168 -12.78542,59.17837 -11.36491,60.9448c1.42052,1.76643 49.7217,35.3305 53.98351,45.04622c4.26181,9.71572 26.99188,29.58882 36.93627,29.1474c9.94413,-0.44143 33.6213,-0.44143 39.77731,-7.94929c6.15574,-7.50786 24.15059,-8.39096 28.4124,0c4.26181,8.39072 2.84129,7.94929 2.84129,7.94929c0,0 15.1533,-3.09119 19.88878,7.94929c4.73523,11.04072 -7.10336,15.89858 -8.52387,15.89858c-1.42052,0 8.99729,-16.78192 -5.68258,-13.24882c0,0 -8.52362,0.33131 -8.52362,-2.64976c0,-2.98107 4.9722,15.56751 0,15.89858c0,0 -16.69243,-17.22334 -19.88878,-7.94929c0,0 -10.65452,1.98738 -14.2062,2.64976c-3.55142,0.66238 -2.84129,2.64976 -2.84129,2.64976c0,0 -9.234,3.31214 -2.84103,13.24882c0,0 0,3.64345 -2.84129,5.29977c-2.84129,1.65607 1.77584,9.60536 14.2062,2.64976c0,0 3.19636,-2.64976 2.84129,0c-0.35532,2.64976 -12.78568,16.89227 -28.4124,-2.64976c0,0 -5.68258,-14.90513 2.84129,-18.54859c8.52362,-3.64345 -2.84129,-10.93036 -14.2062,-5.29953c0,0 -0.71039,10.59905 2.84103,13.24882c3.55168,2.64976 -6.03765,0.33131 -8.52362,-2.64976c-2.48597,-2.98083 -5.68258,6.29322 -5.68258,7.94929c0,1.65607 -3.19636,7.28691 -5.68232,5.29977c-2.48623,-1.98738 -25.92643,-4.30608 -25.57137,-2.65c0.35532,1.65631 -11.00958,8.61191 -14.2062,5.29977c-3.19636,-3.31239 -20.95398,-20.20466 -22.72982,-18.54859c-1.77584,1.65607 12.0753,20.20466 19.88878,23.84811c7.81323,3.64321 40.48769,5.96191 51.14221,-2.64976c0,0 16.3371,-2.98107 17.04749,0c0,0 18.46801,6.9556 17.04749,10.59905c-1.42078,3.64345 -1.42078,1.65607 -2.84129,0c-1.42052,-1.65631 -13.14075,-7.61822 -14.2062,-5.29953c-1.06545,2.31845 0,2.64976 0,2.64976c0,0 14.91659,3.97452 14.2062,5.29953c0,0 17.40256,6.62429 14.2062,21.19811c0,0 -5.32726,3.64345 -5.68258,0c-0.35506,-3.64345 2.1309,-13.58013 -8.52362,-13.24882c0,0 -1.77584,5.29953 -8.52362,2.64976c-6.74804,-2.64976 3.90649,-8.2806 -31.25369,-5.29953c0,0 1.42052,6.29322 5.68232,7.94929c4.26181,1.65607 11.36517,1.65607 11.36517,7.94929c0,0 4.61687,5.29953 0,10.59905c0,0 -2.84129,1.65607 -2.84129,0c0,-1.65607 2.84129,-9.60536 -11.36491,-13.24882c-14.20646,-3.64345 -11.36517,-2.64976 -11.36517,-2.64976c0,0 2.48623,15.89858 -2.84129,15.89858c-5.32726,0 3.55168,9.93667 14.20646,5.29953c0,0 1.06519,-3.97452 2.84103,-2.64976c1.77584,1.325 -8.87868,20.53573 -28.4124,-2.64976c0,0 -6.39271,-12.25513 0,-15.89858c0,0 4.26181,-12.25513 -17.04749,-7.94929c0,0 -8.87868,1.32476 -8.52362,0c0.35506,-1.325 -1.42052,6.29322 0,7.94929c1.42052,1.65607 -16.69243,-3.64345 -17.04749,-5.29953l-5.68232,0c0,0 3.31471,15.45715 5.68232,15.89858c2.36761,0.44143 -10.89123,-7.50786 -14.2062,-13.24882c0,0 0,11.04048 2.84129,13.24882c2.84129,2.20834 -12.78568,-11.92406 -11.36491,-13.24882c0,0 0.47342,14.13215 5.68232,21.19811c5.20891,7.06596 -11.36491,-6.62429 -14.2062,-10.59905c0,0 -2.84103,1.76643 0,5.29953c2.84129,3.5331 -9.47071,-3.5331 -11.36491,-13.24882c0,0 -8.0502,-6.18286 -11.36491,-7.94929c0,0 0.47342,15.01525 2.84129,15.89858c0,0 -6.62968,-4.8581 -8.52387,-10.59905c0,0 -3.78813,5.29953 -2.84129,7.94929c0,0 -10.89123,-11.48239 -14.2062,-21.19811c-3.31471,-9.71572 -2.84103,2.64976 -2.84103,2.64976c0,0 -6.62968,-0.88358 -11.36517,-18.54834c0,0 -27.4653,26.93906 -36.93602,29.1474c-9.47071,2.2081 11.36491,-10.59905 11.36491,-10.59905c0,0 -15.62672,4.41619 -17.04749,7.94929c0,0 1.42078,-4.8581 8.52387,-10.59905c7.1031,-5.74119 -8.52387,-2.64976 -8.52387,-2.64976c0,0 -3.31471,-0.88358 -2.84103,-29.14764c0,0 -21.30956,21.19835 -34.09498,21.19835c-12.78568,0 11.83859,-8.83287 14.2062,-15.89882c2.36761,-7.06596 -5.20891,-4.85786 -8.52387,-2.64976c-3.31471,2.20834 -27.93872,15.45715 -28.4124,18.54859c-0.47342,3.09119 -2.84103,-5.29953 -2.84103,-5.29953c0,0 -5.68258,2.64976 -11.36517,2.64976c-5.68232,0 16.57381,-9.71572 19.88878,-15.89882c3.31497,-6.18286 -30.78001,11.04072 -42.6186,18.54859c0,0 -9.94439,3.09119 -11.36491,0c-1.42078,-3.09143 17.04749,-15.01525 17.04749,-15.89882c0,-0.88333 6.62942,-8.39072 -5.68258,-2.64976c-12.31201,5.74119 -28.4124,1.325 -39.77731,5.29953c-11.36517,3.97477 -23.67691,16.34025 -39.77757,15.89882c-16.10039,-0.44167 -16.09652,18.54834 -45.45963,18.54834c-17.04749,0 -9.94439,6.18286 -17.04749,5.29953c-7.1031,-0.88333 8.52362,-7.94929 8.52362,-7.94929c0,0 -17.04749,5.29953 -19.88852,5.29953c-2.84129,0 -15.62697,0.44143 14.20594,-10.59905c0,0 -21.78272,0 -14.20594,-2.64976c7.57652,-2.64976 26.5182,-7.94929 25.57111,-10.59905c-0.94736,-2.64976 -20.3622,-2.20834 -14.2062,-5.29953c6.15574,-3.09143 39.77731,-14.57382 31.25369,-15.89882c-8.52387,-1.32476 -20.83588,-1.76643 -14.2062,-5.29953c6.62968,-3.5331 88.07823,-11.92382 99.4434,-21.19811c11.36491,-9.27429 40.7244,-36.21335 48.30092,-37.09669c7.57678,-0.88358 0,-7.50786 -5.68232,-5.29977c-5.68258,2.20834 -10.89149,-1.32476 -8.52387,-15.89858c2.36787,-14.57358 -24.36973,31.95836 -39.77731,15.89858c-8.0502,-8.39072 -1.89419,-14.57358 -11.36491,-13.24882c-9.47071,1.325 -8.99729,-9.71572 -11.36491,-5.29953c-2.36761,4.41619 -22.2564,31.7974 -31.25369,29.14764c-8.99729,-2.64976 -2.36761,-4.41619 -8.52387,-5.29953c-6.156,-0.88358 -10.41781,-2.64976 -11.36491,-7.94953c-0.9471,-5.29953 -6.62942,3.53334 -8.52362,-5.29953c-1.89419,-8.83263 -3.31471,-19.87311 -11.36491,-10.59905c-8.05046,9.27429 -10.89175,3.09143 -11.36517,0c-0.47342,-3.09119 -17.52091,1.76643 -17.04723,-7.94929c0.47316,-9.71572 -16.57407,3.09143 -14.20646,-7.94929c2.36787,-11.04048 -14.4013,-1.49632 -11.36491,-10.59905c6.62968,-19.87335 -22.72982,-1.76643 -19.88852,-10.59905c2.84103,-8.83263 -13.73278,-1.76643 -11.36517,-10.59905c2.36787,-8.83263 -15.76652,-5.76481 -14.2062,-13.24882c3.31471,-15.89882 -17.04723,-4.8581 -14.2062,-18.54859c2.84129,-13.69024 -12.92988,-0.0918 -11.36491,-10.59905c2.36787,-15.89858 -20.29501,-10.1251 -14.2062,-21.19811c9.47097,-17.22358 -9.73843,-9.81957 -5.68258,-18.54834c6.156,-13.24882 -39.55248,1.46982 -28.4124,-21.19835c5.20916,-10.59905 -30.93661,-17.65585 -14.2062,-26.49763c28.4124,-15.01525 -43.56544,-7.50786 -8.52362,-31.79716c32.67421,-14.13215 34.67642,-15.46318 -5.68258,-13.24882c-16.10039,0.88333 -40.25098,-19.87335 -17.04723,-21.19835c23.20349,-1.32476 70.55732,-11.92382 17.04723,-15.89858c-53.50983,-3.97452 -55.40402,-22.08144 -34.09472,-21.19811c21.3093,0.88333 104.6523,0.88333 82.39591,-5.29953c-22.2564,-6.18286 -124.11237,-21.29304 -85.2372,-37.09669c18.46801,-7.50786 148.60123,32.41111 110.8083,5.29953c-6.15574,-4.41619 -66.29551,-20.31501 -88.07849,-42.39646c-21.78272,-22.08144 -17.52091,-25.17287 -5.68232,-21.19811c11.83859,3.97452 149.16432,62.26956 127.8558,42.39622c-3.78839,-3.5331 -82.39591,-38.42169 -93.76107,-68.89385c-11.36491,-30.4724 -0.47342,-22.52311 8.52387,-13.24906c8.99704,9.27429 138.21495,97.8374 116.49089,68.89409c-6.62968,-8.83263 -64.40132,-44.16264 -76.71358,-79.49314c-12.31226,-35.33026 -2.84129,-25.6143 5.68258,-15.89858c8.52362,9.71572 140.19364,142.08583 119.33192,95.39173c-4.73523,-10.59905 -46.40699,-43.72122 -51.14221,-74.19362c-4.73523,-30.4724 7.57652,-18.98977 14.2062,-7.94929c6.62968,11.04072 99.91707,148.38724 102.28469,124.53936c0,0 0.47368,0.44143 2.84129,0c2.36761,-0.44167 -1.89419,-12.80739 2.84129,-10.59905c0,0 1.89419,-9.71572 5.68232,-7.94953c3.78839,1.76643 7.57678,0.44167 8.52387,-10.59905c0.94684,-11.04048 28.88582,1.76643 36.93602,58.29504c0,0 5.68258,5.73397 5.68258,18.54834c0,6.62453 34.09472,38.86336 53.98351,37.09693c19.88878,-1.76643 48.30118,37.09669 56.8248,39.74645c8.52362,2.64976 27.4653,18.54834 56.8248,2.64976c29.3595,-15.89858 58.24557,-21.19811 34.09498,-23.84787c-24.15059,-2.64976 -19.4151,-11.48239 -8.52362,-13.24882c10.89123,-1.76643 58.24531,-2.64976 42.6186,-10.59905c-15.62697,-7.94953 -29.12589,-50.42068 -8.52387,-39.74669c8.52387,4.41619 38.79481,43.65905 34.09498,15.89858c-1.42078,-8.39072 -19.88878,-18.54834 -14.2062,-47.69574c5.68232,-29.14764 13.56093,-5.95878 14.2062,-2.64976c0.9471,4.85786 23.91982,65.1716 28.4124,34.44693c1.42052,-9.71572 -10.41781,-22.52311 -5.68258,-58.29504c4.73523,-35.77169 11.36491,0 11.36491,0c0,0 13.51106,36.63285 11.36517,55.64527c-0.94736,8.39096 12.31201,5.29953 11.36491,-10.59905c-0.94736,-15.89858 -8.0502,-50.78717 -2.84129,-50.34575c5.20916,0.44167 20.81624,23.65149 17.04749,42.39646c-1.42078,7.06596 20.3622,14.13215 -2.84129,29.1474c-23.20324,15.01525 -48.30118,45.04622 -48.30118,45.04622c0,0 5.61384,19.40831 -22.72982,29.1474c-17.99459,6.18286 -2.84129,18.54834 -2.84129,18.54834l0.00001,-0.00003z" fill="url(#svg_13)"/>
  <path stroke="#000" id="svg_5" d="m916.57156,716.85719" opacity="NaN" fill="#fff"/>
  <text transform="matrix(3.43018 0 0 2.80593 -595.802 -680.54)" stroke="#000000" font-weight="bold" xml:space="preserve" text-anchor="start" font-family="'Domine'" font-size="40" stroke-width="0" id="svg_14" y="520.68029" x="392.57817" fill="#000000">ORIGINAL</text>
  <text transform="matrix(3.38057 0 0 2.86903 -1104.93 -1449.75)" stroke="#000000" font-weight="bold" xml:space="preserve" text-anchor="start" font-family="'Domine'" font-size="40" id="svg_17" y="824.67385" x="709.31691" stroke-width="0" fill="#000000">W.L.S</text>
  <text xml:space="preserve" text-anchor="start" font-family="'Domine'" font-size="40" stroke-width="0" id="svg_19" y="587.14295" x="412.85727" stroke="#000000" fill="#000000">Basketball is a beautiful game</text>
  <text xml:space="preserve" text-anchor="start" font-family="'Domine'" font-size="40" id="svg_20" y="647.14295" x="410.00013" stroke-width="0" stroke="#000000" fill="#000000">when the five players on the court play with one heartbeat.</text>
 </g>
</svg>